<svg width="188" height="228" viewBox="0 0 188 228" fill="none" xmlns="http://www.w3.org/2000/svg">
<path fill-rule="evenodd" clip-rule="evenodd" d="M167.274 139.243L166.965 139.114C147.184 130.921 131.462 138.16 121.472 146.088C126.365 133.605 127.568 122.372 127.785 119.861C129.304 116.803 131.385 114.943 134.141 114.181C141.509 112.137 151.099 118.506 151.192 118.57L153.773 120.303L168.963 82.7868L121.494 36.6396L83.8165 40.9293C82.9909 41.0579 82.1766 41.211 81.3623 41.369C74.0728 31.9428 64.8534 24.1957 54.1928 19.7204L93.8909 10.3007L177.111 30.0423L177.919 80.5605C177.919 101.566 174.233 121.338 167.274 139.241V139.243ZM94.1449 85.899C95.5097 100.406 93.8795 135.429 49.6768 148.197L26.9745 108.131C28.7578 89.9509 37.2052 73.8394 49.8429 62.4492L50.2745 63.0225C61.1485 77.5281 61.1696 92.9035 50.3299 106.316L48.7501 108.267L52.6717 111.411L54.2498 109.456C66.6661 94.0923 66.6856 76.5363 54.3052 60.0243L53.6961 59.2132C61.2799 53.318 70.0408 49.1194 79.3868 46.9012C87.3522 57.9332 92.7916 71.5252 94.1449 85.899ZM133.317 55.5831C127.988 59.9217 121.355 65.322 122.805 89.0731C123.725 104.219 123 116.234 122.837 118.56L122.831 118.578L122.805 119.055C122.795 119.213 121.816 134.852 114.303 150.254C104.613 170.13 89.0263 180.288 67.964 180.464L52.2109 152.67C84.6732 142.826 102.2 117.811 99.1528 85.4349C97.8955 72.0806 92.746 57.9315 84.6227 45.8785L119.689 41.8885L133.592 55.404C133.499 55.461 133.405 55.5131 133.317 55.5831ZM143.59 82.2917C145.893 82.3377 148.122 81.481 149.801 79.9049C151.48 78.3288 152.477 76.1583 152.576 73.8573L163.038 84.0278L151.366 112.855C147.409 110.736 139.714 107.438 132.81 109.352C131.149 109.806 129.585 110.562 128.197 111.583C128.355 106.074 128.392 98.0579 127.825 88.7685C126.532 67.5776 131.6 63.4508 136.501 59.4624C136.74 59.267 136.924 59.0341 137.071 58.7833L152.357 73.6424L134.911 73.3167C134.82 78.1812 138.706 82.1989 143.59 82.2901V82.2917ZM93.9137 217.01C41.7929 192.916 10.7523 142.08 10.7523 80.5605V30.0276L44.8758 21.9303C56.5575 24.8536 67.451 32.332 76.0385 42.6018C46.4962 50.616 24.6766 76.665 21.8917 108.464L21.8217 109.238L65.0147 185.45L66.4592 185.471C66.7768 185.475 67.0813 185.476 67.3957 185.476C89.0882 185.476 103.039 175.633 111.991 163.543L112.243 163.704L113.6 161.6C113.652 161.522 118.774 153.67 127.726 147.606C139.468 139.65 152.024 138.354 165.033 143.738L165.375 143.879C151.593 176.052 126.946 201.752 93.9137 217.01ZM93.8909 0L0.692627 22.116V80.5605C0.692627 146.952 34.777 201.731 91.8649 227.09L93.9137 228L95.9624 227.09C153.58 201.495 187.977 146.72 187.977 80.4807L187.048 22.1013L93.8893 0H93.8909Z" fill="white"/>
</svg>
