<svg width="95" height="95" viewBox="0 0 95 95" fill="none" xmlns="http://www.w3.org/2000/svg">
<g id="Group 3">
<circle id="Ellipse 4" cx="47.5" cy="47.5" r="47.5" fill="white"/>
<path id="Vector" fill-rule="evenodd" clip-rule="evenodd" d="M64.045 55.0099C72.1632 56.6882 77.52 59.5629 77.52 62.8287C77.52 68.0031 64.0798 72.2 47.5 72.2C30.9202 72.2 17.48 68.0051 17.48 62.8287C17.48 59.4448 23.2266 56.4811 31.8387 54.8337L29.6041 62.2866L31.3409 63.5159C38.0195 68.249 57.4069 68.249 64.0856 63.5159L65.6949 62.3757L64.045 55.0079V55.0099ZM55.9906 25.1188L51.6855 34.13L57.3915 38.8128L60.8591 54.2994C58.0727 55.8345 52.9204 56.603 47.7142 56.603C42.7723 56.603 37.8825 55.912 35.015 54.5298L38.6736 42.3225L35.6402 35.4425L43.4766 27.0991L39.2776 20.5251H24.5696L41.3134 13.68L43.3975 14.8879L51.1278 19.1835L55.9944 25.1168L55.9906 25.1188ZM61.5229 57.2612L62.3836 61.1C56.7489 65.0936 38.6814 65.0936 33.0448 61.1L34.162 57.3754C37.5351 58.8351 42.6468 59.5668 47.7142 59.5668C52.9127 59.5668 58.1557 58.7983 61.5229 57.2612Z" fill="#9747FF"/>
</g>
</svg>
