<svg width="95" height="95" viewBox="0 0 95 95" fill="none" xmlns="http://www.w3.org/2000/svg">
<g id="Group 4">
<circle id="Ellipse 5" cx="47.5" cy="47.5" r="47.5" fill="white"/>
<g id="Group">
<g id="Group_2">
<path id="Vector" d="M22.0143 74.4455H73.7491C77.8384 74.4455 81.3824 71.1007 81.3192 67.0121C81.2828 64.6289 80.0953 62.52 78.2955 61.2106C77.4632 60.6013 76.4971 60.1628 75.4493 59.9473C74.9812 59.8507 74.4982 59.7987 74.0003 59.7987H67.6838C67.4252 59.7987 67.2156 59.5891 67.2156 59.3305V44.7477C67.2156 44.3026 66.7995 43.9689 66.3655 44.0692C65.8914 44.1785 65.4299 44.3226 64.9863 44.5054C61.5011 45.9248 59.034 49.3505 59.034 53.341C59.034 55.4901 59.7496 57.4623 60.9482 59.0556C61.1793 59.3625 60.9616 59.7987 60.5767 59.7987H59.89C58.516 59.7987 57.307 58.927 56.8299 57.6392C56.3342 56.3009 56.0608 54.8563 56.0608 53.341C56.0608 47.6934 59.8284 42.9077 64.9856 41.3621C65.5176 41.203 66.0608 41.0767 66.6174 40.9883C66.9585 40.934 67.2149 40.6524 67.2149 40.3068V34.5031C67.2149 24.1077 58.7873 15.6801 48.3918 15.6801H47.3663C36.9709 15.6801 28.5433 24.1077 28.5433 34.5031V41.3323C28.5433 48.5227 31.8457 54.9566 37.0207 59.1916C37.2712 59.3959 37.1344 59.7987 36.8112 59.7987H21.7594C17.5616 59.7987 14.1767 63.353 14.4561 67.6177C14.711 71.5072 18.1167 74.4455 22.0143 74.4455ZM31.0409 32.0434C31.0409 31.8205 31.0557 31.5975 31.0706 31.382C31.1746 30.0742 31.5685 28.8555 32.2001 27.7854C33.6641 25.2811 36.3764 23.5942 39.4827 23.5942C42.9664 23.5942 45.9507 25.6965 47.2445 28.7024C47.4786 29.2471 48.2804 29.2471 48.5145 28.7024C49.8082 25.6965 52.7926 23.5942 56.2763 23.5942C59.3825 23.5942 62.0948 25.2811 63.5588 27.7854C64.1904 28.8555 64.5843 30.0742 64.6883 31.382C64.7032 31.5975 64.718 31.8205 64.718 32.0434C64.718 36.3237 61.5375 39.8535 57.4132 40.4109V40.4926H39.0145V40.4703C34.5707 40.2251 31.0409 36.5541 31.0409 32.0434ZM21.7594 63.5143H74.0003C74.5056 63.5143 74.9812 63.6183 75.4196 63.8115C76.7052 64.3614 77.6044 65.6396 77.6044 67.1258C77.6044 69.1099 75.9844 70.7299 74.0003 70.7299H21.7594C19.7753 70.7299 18.1553 69.1099 18.1553 67.1258C18.1553 65.1417 19.7753 63.5143 21.7594 63.5143Z" fill="#9747FF"/>
<path id="Vector_2" d="M47.8798 40.0044L49.7228 36.855C49.8825 36.5823 49.8327 36.236 49.6031 36.0198L48.345 34.833C48.0842 34.5871 47.6762 34.5871 47.4147 34.833L46.1566 36.0198C45.9269 36.236 45.8772 36.5831 46.0369 36.855L47.8798 40.0044Z" fill="#9747FF"/>
<path id="Vector_3" d="M39.7821 35.5501C41.3618 35.5501 42.6424 34.2695 42.6424 32.6898C42.6424 31.1102 41.3618 29.8296 39.7821 29.8296C38.2024 29.8296 36.9219 31.1102 36.9219 32.6898C36.9219 34.2695 38.2024 35.5501 39.7821 35.5501Z" fill="#9747FF"/>
<path id="Vector_4" d="M55.9774 35.5501C57.5571 35.5501 58.8377 34.2695 58.8377 32.6898C58.8377 31.1102 57.5571 29.8296 55.9774 29.8296C54.3978 29.8296 53.1172 31.1102 53.1172 32.6898C53.1172 34.2695 54.3978 35.5501 55.9774 35.5501Z" fill="#9747FF"/>
<path id="Vector_5" d="M74.4952 69.1359C75.6222 69.1359 76.5358 68.2223 76.5358 67.0953C76.5358 65.9683 75.6222 65.0547 74.4952 65.0547C73.3682 65.0547 72.4546 65.9683 72.4546 67.0953C72.4546 68.2223 73.3682 69.1359 74.4952 69.1359Z" fill="#9747FF"/>
</g>
</g>
</g>
</svg>
