<svg width="178" height="228" viewBox="0 0 178 228" fill="none" xmlns="http://www.w3.org/2000/svg">
<path fill-rule="evenodd" clip-rule="evenodd" d="M163.012 135.611C161.357 130.759 159.007 126.173 156.033 121.996C150.687 114.438 139.526 102.952 119.114 98.0433C129.094 95.4538 136.855 89.363 137.784 73.2434L137.995 69.584L134.58 70.7093C134.45 70.7484 120.763 74.4176 89.5454 54.3161C81.8911 49.3506 69.8087 45.5169 57.9804 48.8799C58.1056 48.2031 58.1694 47.5163 58.171 46.8279C58.171 40.6019 53.2136 35.5354 47.1227 35.5354C41.0286 35.5354 36.0729 40.6003 36.0729 46.8279C36.0729 51.8 39.2356 56.0229 43.6115 57.5244C38.4587 62.7358 34.371 69.8918 31.5455 78.8033C30.8455 81.0013 30.2847 83.2412 29.8664 85.5098L29.5032 86.4218C18.0576 115.173 25.624 131.115 31.1481 142.754C36.011 152.998 39.0222 159.4 29.1254 170.091C24.3863 163.728 20.165 155.869 16.6652 145.723C9.87243 126.027 9.72748 56.7085 9.848 35.6494C17.8329 36.6494 32.3321 36.0403 49.3197 24.155C61.9818 15.2955 75.5837 10.4147 88.666 10.0304C101.75 10.4147 115.353 15.2972 128.014 24.155C145.003 36.0403 159.501 36.651 167.487 35.6494C167.591 53.9464 167.494 108.649 163.012 135.611ZM114.376 196.757C110.417 198.995 106.408 201.274 102.44 203.778C108.75 186.621 106.349 167.424 100.258 156.509C95.5467 148.062 86.7573 141.163 74.144 135.989C72.5545 133.11 66.7454 121.576 70.1149 112.678C71.8835 108.01 76.0706 104.691 82.5572 102.815C86.6938 101.618 91.1658 101.038 95.6753 100.654V100.695H98.128C130.133 100.695 145.655 115.879 152.058 124.933C157.387 132.465 159.849 140.279 160.349 146.615C149.672 176.793 132.523 186.499 114.376 196.757ZM81.2218 97.9895C73.1701 100.318 67.8952 104.652 65.5386 110.868C62.5258 118.824 65.1413 127.911 67.545 133.636C53.4465 128.18 42.9976 119.772 37.8041 109.601C35.3286 104.746 34.1121 99.5301 34.0632 94.0223C35.0599 84.0099 39.1216 77.0819 46.1651 73.4567C55.7021 68.5433 67.6981 71.0725 73.1636 74.4404C103.738 93.265 130.639 80.3798 131.768 79.8212L131.865 79.7739C128.279 93.4539 116.303 94.2438 101.629 95.1965C94.8187 95.6362 87.7784 96.0922 81.2234 97.9895H81.2218ZM57.3209 54.3519C60.6383 53.1305 64.0143 52.6126 67.3121 52.6126C74.8296 52.6126 81.9318 55.3144 86.925 58.5569C107.24 71.6376 120.706 75.1683 128.34 75.8637C124.496 77.3979 112.456 81.3765 97.1622 78.5346C97.8332 73.2597 94.3187 68.343 89.1431 67.444C85.075 66.7389 81.1762 68.7241 79.1681 72.1294C77.9926 71.5019 76.8358 70.8398 75.6993 70.1442C68.1916 65.5223 54.5148 63.5452 43.9584 68.9798C42.4039 69.7832 40.9364 70.7448 39.5792 71.8493C43.8949 62.9899 49.8359 57.1107 57.3209 54.3519ZM47.1244 53.1061C43.7353 53.1061 40.9814 50.2887 40.9814 46.8279C40.9814 43.3672 43.7337 40.5498 47.1244 40.5498C50.5118 40.5498 53.2673 43.3672 53.2673 46.8279C53.2673 50.2903 50.5102 53.1061 47.1244 53.1061ZM62.9704 196.756C51.958 190.535 41.3153 184.512 32.2588 174.005C45.0186 160.497 40.6264 151.232 35.5648 140.567C31.1383 131.237 25.8292 120.039 29.8811 101.639C30.5923 105.214 31.7953 108.674 33.4558 111.919C39.9131 124.569 53.4546 134.658 71.5937 140.341C83.5474 145.119 91.7603 151.395 95.9978 158.993C102.252 170.197 104.077 192.176 94.4344 209.293C92.448 210.789 90.5272 212.37 88.6774 214.032C80.5427 206.685 71.6279 201.648 62.9704 196.756ZM177.107 22.3619L170.622 24.7787C169.972 25.0181 154.494 30.5259 133.556 15.8786C119.298 5.90357 103.823 0.412029 88.8093 0.00325714L88.6578 0L88.5275 0.00325714C73.5137 0.412029 58.0391 5.90357 43.7793 15.8786C22.8456 30.5243 7.36117 25.0197 6.75208 24.7917L0.188938 22.2186L0.0879666 29.4006C0.0342237 33.2587 -1.17092 124.177 7.41002 149.055C19.3035 183.543 39.089 194.72 58.2215 205.532C67.9603 211.035 77.1617 216.232 85.2069 224.456L88.6757 228L92.1446 224.455C100.191 216.232 109.388 211.035 119.125 205.534C138.253 194.722 158.032 183.545 169.925 149.055C178.504 124.177 177.303 33.2587 177.247 29.399L177.106 22.3619H177.107Z" fill="white"/>
</svg>
