<svg width="182" height="228" viewBox="0 0 182 228" fill="none" xmlns="http://www.w3.org/2000/svg">
<path fill-rule="evenodd" clip-rule="evenodd" d="M126.267 191.764C148.524 166.774 152.011 143.156 149.006 122.669C152.301 126.41 155.841 128.385 159.6 128.551C159.766 128.558 159.931 128.561 160.094 128.561C163.163 128.561 166.173 127.286 168.969 124.872C168.074 133.624 166.877 140.94 165.276 145.536C156.183 171.651 141.938 182.687 126.267 191.766V191.764ZM91.0063 214.043C82.6534 206.601 73.3689 201.513 64.3532 196.573C51.2562 189.398 38.6624 182.494 28.5832 168.757C39.9588 174.909 51.5852 177.259 62.4412 177.255C79.3637 177.255 94.4101 171.591 103.683 165.907C127.366 151.392 138.233 125.265 138.274 100.952C139.091 103.243 139.857 105.553 140.57 107.878L140.526 107.899L140.694 108.285C148.56 134.284 149.679 166.054 109.934 200.878C103.442 204.602 96.9848 208.714 91.0063 214.043ZM83.0508 50.4531L88.5896 62.5257C88.1564 62.3629 87.7329 62.2131 87.3339 62.0779C86.8291 61.9085 86.3291 61.7457 85.8519 61.5339C79.1308 58.5569 69.4343 59.2067 63.4102 60.0389L67.993 52.3504C70.488 51.7413 77.411 50.2219 83.0508 50.4531ZM101.118 161.619C85.4008 171.254 51.9744 180.815 22.494 158.949C20.4045 154.968 18.4747 150.532 16.737 145.537C12.6981 133.943 11.2047 105.165 10.7178 79.1241L28.6451 63.0436C25.9156 80.0231 26.9742 95.0304 31.811 107.74C37.8465 123.592 48.0446 131.444 55.5393 135.24C71.6247 143.391 90.337 140.318 101.038 127.771C116.288 109.885 106.478 89.2001 102.289 80.3667C101.763 79.2593 101.328 78.3441 101.051 77.6503C100.21 75.5196 99.1946 73.4618 98.0157 71.4975L98.1379 71.4389L89.8501 53.3781L93.6593 57.1335L101.717 48.7643L87.8176 48.9435L87.4349 48.108L91.8223 39.4977L115.508 45.9697C120.189 56.2004 126.363 70.281 128.49 75.1553L128.867 76.2725C129.395 77.8262 129.985 79.4303 130.605 81.0621C138.395 107.818 129.934 143.954 101.117 161.618L101.118 161.619ZM10.6754 34.472C16.3478 34.8563 25.9075 35.1283 37.1088 33.9231C59.0033 31.5715 77.525 24.5165 91.0063 13.4406C104.486 24.5165 123.008 31.5715 144.902 33.9231C153.682 34.8622 162.526 35.0458 171.337 34.472C171.555 48.5461 171.901 87.4168 169.717 116.381C166.626 121.104 163.111 123.69 159.815 123.543C155.197 123.34 150.309 117.876 146.055 108.158L145.261 106.338C143.072 99.1344 140.425 92.4703 138.035 86.4527C137.098 84.1128 136.181 81.7654 135.282 79.4108C134.864 77.9727 134.398 76.5491 133.885 75.1423C133.857 75.0609 133.576 74.4078 133.107 73.3281L132.748 72.2695L132.657 72.3021C130.035 66.2877 123.786 52.0915 119.515 42.7972L119.029 41.7387L89.2524 33.6039L83.225 45.4371C75.517 45.1391 66.1788 47.6325 65.7602 47.7497L64.7978 48.0103L53.3782 67.1786L59.0391 65.8871C59.1955 65.8545 75.188 62.2815 83.87 66.1265C84.4888 66.3985 85.1272 66.6167 85.7754 66.8333C86.6385 67.1232 87.4528 67.3984 88.1238 67.8267C91.3516 69.8885 94.2342 73.9339 96.4604 79.5231C96.7666 80.2918 97.247 81.3097 97.8284 82.536C101.916 91.1577 110.424 109.095 97.291 124.495C88.0766 135.305 71.8185 137.881 57.7574 130.756C31.9071 117.664 28.9806 83.9805 34.8597 56.8241L36.4883 49.3099L10.6168 72.517C10.4629 59.8357 10.483 47.1528 10.6771 34.472H10.6754ZM181.006 23.2804L175.534 24.0198C175.021 24.0866 123.853 30.6481 94.3612 3.13174L91.0063 0L87.6482 3.13174C58.2297 30.5797 6.9851 24.0882 6.48024 24.0198L1.00661 23.2804L0.873071 28.8697C0.781871 32.7375 -1.29293 123.908 7.3955 148.868C19.3981 183.345 39.8562 194.552 59.6401 205.391C69.76 210.933 79.3181 216.167 87.5049 224.455L91.0063 228L94.5078 224.455C102.696 216.167 112.253 210.934 122.371 205.391C142.155 194.552 162.613 183.346 174.616 148.868C183.307 123.908 181.232 32.7375 181.14 28.8697L181.006 23.2804Z" fill="white"/>
</svg>
