<svg width="175" height="226" viewBox="0 0 175 226" fill="none" xmlns="http://www.w3.org/2000/svg">
<path fill-rule="evenodd" clip-rule="evenodd" d="M86.8715 0.4104L90.2329 3.1464C123.513 30.2149 165.883 31.0275 168.684 31.0487H168.828L174.112 31.0161L169.419 118.369C167.075 163.621 93.3516 220.668 90.2149 223.075L87.1728 225.409L84.1273 223.08C80.9353 220.64 5.9885 162.821 3.99676 119.286L0.2771 30.9298L5.58624 31.0503C6.03573 31.0341 52.9516 31.7018 83.6844 3.34834L86.8715 0.412029V0.4104ZM89.7492 36.8871L51.038 56.4137C50.8589 58.8712 50.6488 64.9393 50.5104 70.8152L73.0628 79.7821L92.5975 64.5647L94.161 66.1184C94.3711 66.3285 99.317 71.3217 98.8513 77.3767C98.5907 80.7511 96.7781 83.6874 93.464 86.1075L33.5846 129.406C33.0912 129.712 24.5054 135.149 22.1879 143.099C28.6208 154.493 38.726 167.344 52.2823 181.258C52.963 181.959 53.6405 182.643 54.3229 183.327C61.0782 186.812 68.4735 186.95 77.0822 183.882C87.4106 180.206 117.086 157.69 117.386 157.462L119.361 155.96L122.391 159.877L120.417 161.38C119.171 162.325 89.8159 184.595 78.7645 188.528C74.1914 190.157 69.835 190.974 65.687 190.974C64.4179 190.975 63.1499 190.895 61.8908 190.735C70.0115 198.448 78.4419 205.828 87.1614 212.858C93.1936 207.988 107.323 196.181 121.443 181.464C138.414 163.777 149.928 147.62 155.548 133.807C154.105 129.178 150.43 124.913 145.523 122.464C141.795 120.602 134.178 118.295 125.073 123.736L83.9547 152.099C79.6178 154.849 73.2876 158.867 66.3955 158.867C60.6466 158.869 54.5085 156.076 48.8053 147.431L47.548 145.524L49.3606 144.129C49.6749 143.888 80.8735 119.912 107.3 101.786C108.023 101.287 108.86 100.655 109.722 100.006C111.129 98.9471 112.585 97.8495 113.837 97.0971C119.357 93.7911 123.218 87.4803 124.171 80.2202C125.278 71.7663 122.371 63.4899 115.985 56.9039C103.462 46.1912 93.1366 39.1313 89.7492 36.8888V36.8871ZM87.2623 13.4031C59.8942 36.4425 24.0656 40.2339 10.6592 40.825L13.9457 118.856C14.1981 124.374 16.0091 130.61 19.2548 137.432C22.2351 131.888 27.1811 127.558 30.8763 125.263L90.5211 82.1256C92.6366 80.5833 93.7408 78.9027 93.8857 77.0021C94.0519 74.8345 92.9607 72.719 91.9966 71.3103L73.8804 85.4251L59.9984 79.9059L60.0506 80.0296L57.7461 80.9661C50.8052 83.7916 46.908 85.829 47.5659 94.8692L47.7451 97.3299L42.7812 97.6882L42.6004 95.2258C42.392 92.3758 42.6265 90.0177 43.1525 88.0113L34.4331 87.8973L34.4983 82.9611L45.4716 83.1027C47.6066 80.2755 50.6211 78.6372 53.5753 77.3539L45.4585 74.1244L45.4944 72.4193C45.5986 67.5173 45.8852 55.9349 46.3087 54.2217L46.5823 53.124L90.0488 31.1985L91.2491 31.9575C91.7507 32.275 103.724 39.8886 119.326 53.2413L119.487 53.3927C127.001 61.0942 130.416 70.8477 129.105 80.8553C127.962 89.5926 123.218 97.2453 116.415 101.32C115.388 101.936 114.038 102.952 112.735 103.937C111.811 104.632 110.911 105.308 110.134 105.842C87.5294 121.348 61.4006 141.166 54.2838 146.597C62.9299 158.168 71.2812 154.284 81.1927 147.992L122.368 119.599C130.646 114.64 139.852 114.111 147.761 118.055C151.975 120.158 155.486 123.374 157.866 127.107C158.771 123.866 159.323 120.772 159.475 117.856L163.62 40.7322C150.713 39.9179 116.702 35.6429 87.2623 13.4031ZM73.5628 53.7429L68.9702 66.7714L52.3914 62.8645L73.5628 53.7429Z" fill="white"/>
</svg>
