<svg width="95" height="95" viewBox="0 0 95 95" fill="none" xmlns="http://www.w3.org/2000/svg">
<g id="Group 2">
<circle id="Ellipse 3" cx="47.5" cy="47.5" r="47.5" fill="white"/>
<g id="Group 1">
<g id="Vector">
<path d="M77.566 17.4823C77.1726 17.4615 76.8127 17.7591 76.7696 18.1606C76.7667 18.1859 76.4772 20.719 74.5601 23.8844C72.7915 26.8049 69.2305 30.8825 62.3103 33.7206C52.7769 37.6288 49.2036 45.2085 47.8826 49.7726C46.5616 45.2085 42.9885 37.6288 33.4556 33.7206C20.2276 28.296 19.0067 18.2616 18.9963 18.1629C18.9547 17.7606 18.5977 17.4622 18.2006 17.4808C17.7962 17.5023 17.4792 17.8363 17.48 18.2415C17.5191 42.7275 34.113 55.2599 37.8181 57.7517C36.134 59.9141 35.1203 62.6231 35.1203 65.5701C35.1203 72.606 40.844 78.3298 47.88 78.3298C54.9159 78.3298 60.6397 72.606 60.6397 65.5701C60.6397 65.5551 60.6374 65.5406 60.6374 65.5256C60.6374 65.5217 60.6397 65.5184 60.6397 65.5144C60.6397 65.5078 60.6361 65.5024 60.6359 65.4957C60.619 62.5789 59.6123 59.8977 57.9437 57.754C61.6421 55.2676 78.2468 42.735 78.2852 18.2415C78.2859 17.8371 77.9697 17.5038 77.566 17.4823ZM59.0783 64.7544H36.6816C37.1024 58.9379 41.958 54.3304 47.88 54.3304C53.8019 54.3304 58.6576 58.9379 59.0783 64.7544ZM19.2931 23.638C21.1954 27.2465 25.0622 31.9215 32.8796 35.1263C44.2472 39.7873 46.5868 49.9911 47.0257 52.8537C43.8274 53.0671 40.946 54.4513 38.8207 56.5968C35.9467 54.705 21.5371 44.2507 19.2931 23.638ZM47.88 76.8098C41.9204 76.8098 37.0425 72.1433 36.676 66.2744H59.084C58.7174 72.1433 53.8395 76.8098 47.88 76.8098ZM56.9406 56.5983C54.8163 54.4531 51.9364 53.0686 48.7394 52.854C49.1783 49.9918 51.5179 39.7875 62.887 35.1263C70.7022 31.9215 74.569 27.248 76.4713 23.6395C74.226 44.2346 59.808 54.7077 56.9406 56.5983Z" fill="#9747FF"/>
<path d="M56.9406 56.5983C54.8163 54.4531 51.9364 53.0686 48.7394 52.854C49.1783 49.9918 51.5179 39.7875 62.887 35.1263C70.7022 31.9215 74.569 27.248 76.4713 23.6395C74.226 44.2346 59.808 54.7077 56.9406 56.5983Z" fill="#9747FF"/>
<path d="M19.2931 23.638C21.1954 27.2465 25.0622 31.9215 32.8796 35.1263C44.2472 39.7873 46.5868 49.9911 47.0257 52.8537C43.8274 53.0671 40.946 54.4513 38.8207 56.5968C35.9467 54.705 21.5371 44.2507 19.2931 23.638Z" fill="#9747FF"/>
<path d="M47.88 76.8098C41.9204 76.8098 37.0425 72.1433 36.676 66.2744H59.084C58.7174 72.1433 53.8395 76.8098 47.88 76.8098Z" fill="#9747FF"/>
</g>
<path id="Vector_2" d="M20.1658 48.2905C19.9884 47.909 19.5364 47.7464 19.1557 47.9231C18.7749 48.1012 18.6109 48.5532 18.7883 48.9332C19.6262 50.7263 20.0121 51.4819 21.0616 52.9195C21.21 53.1236 21.4416 53.232 21.6761 53.232C21.8312 53.232 21.9878 53.1845 22.1229 53.0857C22.4621 52.8386 22.5371 52.3629 22.2892 52.0244C21.3154 50.6892 20.9725 50.0183 20.1658 48.2905Z" fill="#9747FF"/>
<path id="Vector_3" d="M31.7662 62.7468C31.876 62.8025 31.9933 62.8285 32.1083 62.8285C32.3859 62.8285 32.6531 62.6763 32.7867 62.4121C32.9767 62.038 32.8268 61.5809 32.4527 61.3909C32.4119 61.3701 28.3299 59.2682 24.5046 54.8967C24.2263 54.5791 23.7469 54.5486 23.4322 54.8247C23.116 55.1016 23.0841 55.5818 23.3602 55.8972C27.391 60.5039 31.5895 62.657 31.7662 62.7468Z" fill="#9747FF"/>
<path id="Vector_4" d="M20.2358 57.6503C19.9775 57.3192 19.4995 57.2606 19.1685 57.5182C18.8375 57.7764 18.7789 58.2544 19.0364 58.5854C22.1068 62.5235 25.4318 64.4747 25.5721 64.5556C25.6916 64.6253 25.823 64.658 25.9521 64.658C26.2141 64.658 26.4687 64.5222 26.6097 64.2795C26.8205 63.9166 26.6973 63.4519 26.3343 63.2404C26.3024 63.2219 23.1147 61.3441 20.2358 57.6503Z" fill="#9747FF"/>
<path id="Vector_5" d="M74.0835 53.2321C74.3181 53.2321 74.5496 53.1237 74.6981 52.9196C75.7475 51.482 76.1334 50.7264 76.9714 48.9333C77.1488 48.5533 76.9847 48.1013 76.604 47.9232C76.224 47.7473 75.772 47.9098 75.5939 48.2906C74.7871 50.0184 74.4442 50.6893 73.4705 52.0245C73.2226 52.363 73.2975 52.8387 73.6367 53.0858C73.7718 53.1846 73.9284 53.2321 74.0835 53.2321Z" fill="#9747FF"/>
<path id="Vector_6" d="M71.2551 54.8967C67.4298 59.2682 63.3478 61.3701 63.307 61.3909C62.9329 61.5809 62.783 62.038 62.973 62.4121C63.1073 62.6763 63.3738 62.8285 63.6514 62.8285C63.7664 62.8285 63.8837 62.8025 63.9935 62.7468C64.1702 62.657 68.3687 60.5039 72.3995 55.8972C72.6756 55.5818 72.6437 55.1016 72.3275 54.8247C72.0121 54.5486 71.5319 54.5791 71.2551 54.8967Z" fill="#9747FF"/>
<path id="Vector_7" d="M69.1503 64.2795C69.2913 64.5222 69.5459 64.658 69.8079 64.658C69.937 64.658 70.0684 64.6253 70.1879 64.5556C70.3282 64.4747 73.6532 62.5235 76.7236 58.5854C76.9811 58.2544 76.9225 57.7764 76.5915 57.5182C76.2597 57.2606 75.7818 57.3192 75.5242 57.6503C72.6453 61.3441 69.4576 63.2219 69.4257 63.2404C69.0627 63.4519 68.9395 63.9166 69.1503 64.2795Z" fill="#9747FF"/>
</g>
</g>
</svg>
